# AST/ASF file generated using VICON BodyLanguage
# -----------------------------------------------
:version 1.10
:name VICON
:units
  mass 1.0
  length 0.45
  angle deg
:documentation
   .ast/.asf automatically generated from VICON data using
   VICON BodyBuilder and BodyLanguage model FoxedUp or BRILLIANT.MOD
:root
   order TX TY TZ RX RY RZ
   axis XYZ
   position 0 0 0  
   orientation 0 0 0 
:bonedata
  begin
     id 1 
     name lhipjoint
     direction 0.630305 -0.712092 0.309259 
     length 2.29033 
     axis 0 0 0  XYZ
  end
  begin
     id 2 
     name lfemur
     direction 0.34202 -0.939693 0  
     length 6.43538  
     axis 0 0 20  XYZ
    dof rx ry rz
    limits (-160.0 20.0)
           (-70.0 70.0)
           (-60.0 70.0)
  end
  begin
     id 3 
     name ltibia
     direction 0.34202 -0.939693 0   
     length 7.43097   
     axis 0 0 20   XYZ
    dof rx
    limits (-10.0 170.0)
  end
  begin
     id 4 
     name lfoot
     direction 0.0334653 -0.0919451 0.995202   
     length 1.78438   
     axis -90 7.62852e-016 20   XYZ
    dof rx rz
    limits (-45.0 90.0)
           (-70.0 20.0)
  end
  begin
     id 5 
     name ltoes
     direction 1.53535e-011 -4.21933e-011 1   
     length 0.90832   
     axis -90 7.62852e-016 20   XYZ
    dof rx
    limits (-90.0 20.0)
  end
  begin
     id 6 
     name rhipjoint
     direction -0.682059 -0.67077 0.291312   
     length 2.43143  
     axis 0 0 0  XYZ 
  end
  begin
     id 7 
     name rfemur
     direction -0.34202 -0.939693 0   
     length 6.63488   
     axis 0 0 -20   XYZ
    dof rx ry rz
    limits (-160.0 20.0)
           (-70.0 70.0)
           (-70.0 60.0)
  end
  begin
     id 8 
     name rtibia
     direction -0.34202 -0.939693 0   
     length 6.86532   
     axis 0 0 -20   XYZ
    dof rx
    limits (-10.0 170.0)
 end
 begin
     id 9 
     name rfoot
     direction -0.105199 -0.289033 0.951521   
     length 1.77126  
     axis -90 -7.62852e-016 -20   XYZ
    dof rx rz
    limits (-45.0 90.0)
           (-20.0 70.0)
  end
  begin
     id 10 
     name rtoes
     direction -1.53551e-011 -4.21978e-011 1   
     length 0.889273   
     axis -90 -7.62852e-016 -20   XYZ
    dof rx
    limits (-90.0 20.0)
  end
  begin
     id 11 
     name lowerback
     direction -0.0514305 0.998089 0.034245   
     length 2.02077   
     axis 0 0 0   XYZ
    dof rx ry rz
    limits (-20.0 45.0)
           (-30.0 30.0)
           (-30.0 30.0)
  end
  begin
     id 12 
     name upperback
     direction 0.0203189 0.999449 -0.0262315   
     length 2.01413   
     axis 0 0 0   XYZ
    dof rx ry rz
    limits (-20.0 45.0)
           (-30.0 30.0)
           (-30.0 30.0)
  end
  begin
     id 13 
     name thorax
     direction 0.0452736 0.998142 -0.0407729   
     length 2.02986   
     axis 0 0 0   XYZ
    dof rx ry rz
    limits (-20.0 45.0)
           (-30.0 30.0)
           (-30.0 30.0)
  end
  begin
     id 14 
     name lowerneck
     direction -0.0180464 0.999645 -0.0195774   
     length 1.59034   
     axis 0 0 0   XYZ
    dof rx ry rz
    limits (-20.0 45.0)
           (-30.0 30.0)
           (-30.0 30.0)
  end
  begin
     id 15 
     name upperneck
     direction 0.0732272 0.979935 -0.18538   
     length 1.57486   
     axis 0 0 0   XYZ
    dof rx ry rz
    limits (-20.0 45.0)
           (-30.0 30.0)
           (-30.0 30.0)
  end
  begin
     id 16
     name head
     direction 0.0252963 0.997909 -0.059472  
     length 1.60334  
     axis 0 0 0   XYZ
    dof rx ry rz
    limits (-20.0 45.0)
           (-30.0 30.0)
           (-30.0 30.0)
  end
  begin
     id 17 
     name lclavicle
     direction 0.943819 0.330449 0.00315172  
     length 3.50322  
     axis 0 0 0   XYZ
    dof ry rz
    limits (-20.0 10.0)
           (0.0 20.0)
  end
  begin
     id 18 
     name lhumerus
     direction 1 -4.48949e-011 2.22502e-028   
     length 4.63208   
     axis 180 -30 -90   XYZ
    dof rx ry rz
    limits (-60.0 90.0)
           (-90.0 90.0)
           (-90.0 90.0)
  end
  begin
     id 19
     name lradius
     direction 1 -4.48967e-011 -4.10197e-027   
     length 3.41924   
     axis 180 -30 -90   XYZ
    dof rx
    limits (-10.0 170.0)
  end
  begin
     id 20
     name lwrist
     direction 1 -4.48987e-011 -1.24264e-027   
     length 1.70962   
     axis 2.50585e-015 90 90   XYZ
    dof ry
    limits (-180.0 0.0)
 end
  begin
     id 21 
     name lhand
     direction 1 -4.48983e-011 -2.48528e-027   
     length 0.62537   
     axis 1.58582e-015 90 90   XYZ
    dof rx rz
    limits (-90.0 90.0)
           (-45.0 45.0)
  end
  begin
     id 22 
     name lfingers
     direction 1 -4.48896e-011 -4.97056e-027   
     length 0.50419   
     axis 3.17164e-015 90 90   XYZ
    dof rx
    limits (0.0 90.0)
  end
  begin
     id 23
     name lthumb
     direction 0.707107 -6.34803e-011 0.707107   
     length 0.723919   
     axis -90 45 2.85299e-015   XYZ
    dof rx rz
    limits (-45.0 45.0)
           (-45.0 45.0)
  end
  begin
     id 24 
     name rclavicle
     direction -0.964499 0.260664 -0.0423695   
     length 3.91997  
     axis 0 0 0   XYZ 
    dof ry rz
    limits (-10.0 20.0)
           (-20.0 0.0)
  end
  begin
     id 25 
     name rhumerus
     direction -1 -4.48957e-011 -1.98656e-027  
     length 4.4064   
     axis 180 30 90   XYZ
    dof rx ry rz
    limits (-90.0 60.0)
           (-90.0 90.0)
           (-90.0 90.0)
  end
  begin
     id 26 
     name rradius
     direction -1 -4.48968e-011 1.96972e-027   
     length 3.44675   
     axis 180 30 90   XYZ
    dof rx
    limits (-10.0 170.0)
  end
  begin
     id 27 
     name rwrist
     direction -1 -4.48974e-011 -1.24264e-027   
     length 1.72338   
     axis 2.50585e-015 -90 -90   XYZ
    dof ry
    limits (-180.0 0.0)
  end
  begin
     id 28
     name rhand
     direction -1 -4.48901e-011 -2.48528e-027   
     length 0.513674   
     axis 1.58582e-015 -90 -90   XYZ
    dof rx rz
    limits (-90.0 90.0)
           (-45.0 45.0)
  end
  begin
     id 29
     name rfingers
     direction -1 -4.48946e-011 -4.97056e-027   
     length 0.414137   
     axis 3.17164e-015 -90 -90   XYZ
    dof rx
    limits (0.0 90.0)
  end
  begin
     id 30
     name rthumb
     direction -0.707107 -6.34859e-011 0.707107   
     length 0.59462   
     axis -90 -45 -2.85299e-015   XYZ
    dof rx rz
    limits (-45.0 45.0)
           (-45.0 45.0)
  end
:hierarchy
  begin
    root lhipjoint rhipjoint lowerback
    lhipjoint lfemur
    lfemur ltibia
    ltibia lfoot
    lfoot ltoes
    rhipjoint rfemur
    rfemur rtibia
    rtibia rfoot
    rfoot rtoes
    lowerback upperback
    upperback thorax
    thorax lowerneck lclavicle rclavicle
    lowerneck upperneck
    upperneck head
    lclavicle lhumerus
    lhumerus lradius
    lradius lwrist
    lwrist lhand lthumb
    lhand lfingers
    rclavicle rhumerus
    rhumerus rradius
    rradius rwrist
    rwrist rhand rthumb
    rhand rfingers
  end

#!OML:ASF E:\inclinewalkrobotboard\Project 1\Capture day 1\Session 1\subject1.ASF
:FULLY-SPECIFIED
:DEGREES
48
root 11.5379 16.459 3.67172 -83.4688 -86.5753 93.422
lowerback -6.77361 0.716961 -8.24246
upperback -0.940293 1.53292 -0.262072
thorax 2.61423 0.672463 4.49172
lowerneck -8.76815 1.99255 -9.41037
upperneck 13.0271 2.09739 13.1938
head 5.0577 1.40835 5.87895
rclavicle -1.22097e-014 -2.12203e-014
rhumerus -46.5738 -15.7364 -85.1771
rradius 103.097
rwrist -7.0806
rhand -21.3791 -30.3121
rfingers 7.12502
rthumb 5.00831 -60.2329
lclavicle -1.22097e-014 -2.12203e-014
lhumerus -40.4436 -11.192 97.6972
lradius 98.925
lwrist -4.21151
lhand -54.5499 -35.6457
lfingers 7.12502
lthumb -26.9496 -7.54746
rfemur -7.32253 6.36569 8.55501
rtibia 10.7145
rfoot -16.6412 -6.14172
rtoes -31.9894
lfemur -6.19316 -10.4353 -12.5985
ltibia 10.2412
lfoot -14.4916 19.1022
ltoes -70.9046
49
root 11.5334 16.4607 3.64791 -83.824 -86.5689 93.8346
lowerback -6.80897 0.715818 -8.30307
upperback -0.982855 1.53576 -0.240905
thorax 2.58684 0.675358 4.5484
lowerneck -8.7532 1.99345 -9.32132
upperneck 13.1503 2.1142 12.9147
head 5.09653 1.40326 5.77695
rclavicle 5.0131e-015 -1.41386e-014
rhumerus -46.632 -15.5905 -85.1128
rradius 103.051
rwrist -6.79201
rhand -20.9385 -30.7306
rfingers 7.12502
rthumb 5.43369 -60.641
lclavicle 5.0131e-015 -1.41386e-014
lhumerus -40.5071 -11.0717 97.6709
lradius 98.9987
lwrist -4.04691
lhand -54.5236 -35.666
lfingers 7.12502
lthumb -26.9244 -7.5639
rfemur -7.34164 6.40624 8.6521
rtibia 10.6687
rfoot -16.5811 -6.12048
rtoes -32.4914
lfemur -6.27162 -10.5919 -12.5242
ltibia 10.3537
lfoot -15.1476 18.8201
ltoes -70.3871
50
root 11.5328 16.462 3.62784 -82.8197 -86.5878 92.8984
lowerback -6.79406 0.725385 -8.27776
upperback -1.03382 1.54143 -0.210595
thorax 2.52418 0.682387 4.56526
lowerneck -8.71841 1.93327 -9.25467
upperneck 13.1673 2.06478 12.6018
head 5.10791 1.36212 5.66062
rclavicle 4.73822e-015 3.04886e-014
rhumerus -46.7195 -15.5781 -85.0461
rradius 103.132
rwrist -6.60778
rhand -21.5564 -29.852
rfingers 7.12502
rthumb 4.83715 -59.7768
lclavicle 4.73822e-015 3.04886e-014
lhumerus -40.5212 -10.9709 97.7477
lradius 99.0332
lwrist -3.96212
lhand -54.5402 -35.5235
lfingers 7.12502
lthumb -26.9403 -7.42383
rfemur -7.40359 6.33936 8.75898
rtibia 10.6718
rfoot -16.488 -6.13775
rtoes -33.5253
lfemur -6.41956 -10.6342 -12.4028
ltibia 10.4617
lfoot -15.5352 18.5345
ltoes -70.0677
51
root 11.532 16.462 3.60663 -81.2871 -86.6584 91.4429
lowerback -6.80026 0.733974 -8.16383
upperback -1.07928 1.5425 -0.213592
thorax 2.48314 0.686781 4.49768
lowerneck -8.64035 1.88151 -9.09808
upperneck 13.0737 2.00883 12.3581
head 5.07867 1.32482 5.54704
rclavicle -5.67158e-015 -2.41275e-014
rhumerus -46.839 -15.5802 -85.0444
rradius 103.295
rwrist -6.70441
rhand -21.804 -29.842
rfingers 7.12502
rthumb 4.59804 -59.7721
lclavicle -5.67158e-015 -2.41275e-014
lhumerus -40.5571 -10.8786 97.8154
lradius 99.0512
lwrist -4.1055
lhand -54.6564 -35.7677
lfingers 7.12502
lthumb -27.0515 -7.68531
rfemur -7.49968 6.18506 8.92032
rtibia 10.7336
rfoot -16.461 -6.10382
rtoes -34.109
lfemur -6.52903 -10.7819 -12.2151
ltibia 10.4761
lfoot -16.2297 18.0537
ltoes -69.3882
52
root 11.5305 16.4599 3.58468 -79.1659 -86.7488 89.3742
lowerback -6.80904 0.767179 -8.03358
upperback -1.10943 1.57709 -0.25539
thorax 2.45664 0.706872 4.38334
lowerneck -8.71423 1.78829 -8.79574
upperneck 13.1329 1.8607 12.1846
head 5.13321 1.25773 5.4342
rclavicle -1.59059e-014 4.22417e-015
rhumerus -46.9221 -15.7375 -85.0165
rradius 103.418
rwrist -6.76648
rhand -21.7407 -29.9137
rfingers 7.12502
rthumb 4.65919 -59.8424
lclavicle -1.59059e-014 4.22417e-015
lhumerus -40.6147 -10.9199 97.8462
lradius 99.0771
lwrist -4.35591
lhand -54.5331 -36.4623
lfingers 7.12502
lthumb -26.9335 -8.36164
rfemur -7.54661 5.98739 9.11893
rtibia 10.7863
rfoot -16.4711 -5.98999
rtoes -34.2009
lfemur -6.59667 -10.9978 -12.0105
ltibia 10.4889
lfoot -16.9559 17.5902
ltoes -68.6525
53
root 11.5297 16.4565 3.56758 -76.2977 -86.8026 86.5365
lowerback -6.81731 0.75688 -7.94784
upperback -1.10595 1.55838 -0.250459
thorax 2.46968 0.697789 4.33912
lowerneck -8.89083 1.75809 -8.53808
upperneck 13.2597 1.80897 12.0026
head 5.21445 1.23859 5.33559
rclavicle 9.71871e-015 6.4605e-015
rhumerus -46.882 -15.8618 -84.9658
rradius 103.497
rwrist -6.77379
rhand -21.5261 -29.8526
rfingers 7.12502
rthumb 4.86639 -59.7767
lclavicle 9.71871e-015 6.4605e-015
lhumerus -40.6063 -10.8923 97.8697
lradius 99.0726
lwrist -4.5293
lhand -54.2938 -36.8519
lfingers 7.12502
lthumb -26.7046 -8.71615
rfemur -7.55553 5.71309 9.25974
rtibia 10.8163
rfoot -16.485 -5.80841
rtoes -34.0994
lfemur -6.65681 -10.9775 -11.8572
ltibia 10.462
lfoot -16.4936 17.9081
ltoes -69.1228
54
root 11.5297 16.4544 3.55132 -75.2525 -86.7975 85.473
lowerback -6.8319 0.684147 -8.00046
upperback -1.03684 1.46989 -0.170909
thorax 2.55838 0.648331 4.44609
lowerneck -8.93531 1.86653 -8.36829
upperneck 13.1894 1.98119 11.7407
head 5.18818 1.31616 5.23076
rclavicle -8.78069e-015 2.79541e-014
rhumerus -46.7116 -15.6507 -84.924
rradius 103.533
rwrist -6.90525
rhand -21.2825 -29.7639
rfingers 7.12502
rthumb 5.10157 -59.6825
lclavicle -8.78069e-015 2.79541e-014
lhumerus -40.495 -10.6332 97.8718
lradius 99.0268
lwrist -4.66372
lhand -54.3768 -36.8697
lfingers 7.12502
lthumb -26.7839 -8.74606
rfemur -7.55068 5.57308 9.30744
rtibia 10.862
rfoot -16.5416 -5.66843
rtoes -33.6977
lfemur -6.58132 -10.7679 -11.8187
ltibia 10.2887
lfoot -14.717 19.1257
ltoes -70.6957
55
root 11.5303 16.4551 3.53218 -75.4909 -86.7959 85.6293
lowerback -6.823 0.623669 -8.12097
upperback -0.923722 1.40276 -0.0701992
thorax 2.67531 0.606523 4.61519
lowerneck -8.8728 1.94392 -8.21964
upperneck 12.9846 2.12662 11.4168
head 5.10668 1.37281 5.10226
rclavicle -1.39483e-014 2.75503e-014
rhumerus -46.4462 -15.3673 -84.908
rradius 103.477
rwrist -7.05256
rhand -21.4569 -29.6493
rfingers 7.12502
rthumb 4.93317 -59.5719
lclavicle -1.39483e-014 2.75503e-014
lhumerus -40.3403 -10.4075 97.8704
lradius 98.973
lwrist -4.67407
lhand -54.5596 -36.736
lfingers 7.12502
lthumb -26.9589 -8.63925
rfemur -7.48324 5.6513 9.39148
rtibia 10.9043
rfoot -16.5984 -5.68437
rtoes -33.3976
lfemur -6.38964 -10.7079 -11.7925
ltibia 10.0925
lfoot -13.7255 19.7867
ltoes -71.4393
56
root 11.5314 16.4552 3.51412 -74.5779 -86.8958 84.6611
lowerback -6.82103 0.610923 -8.11772
upperback -0.846236 1.3887 0.0191713
thorax 2.75513 0.594592 4.70693
lowerneck -8.81249 1.9576 -8.05517
upperneck 12.8605 2.17105 11.1168
head 5.06108 1.38219 4.97574
rclavicle 1.65469e-014 -3.08303e-014
rhumerus -46.2289 -15.2906 -84.9268
rradius 103.427
rwrist -7.00359
rhand -22.0803 -29.6129
rfingers 7.12502
rthumb 4.33123 -59.5486
lclavicle 1.65469e-014 -3.08303e-014
lhumerus -40.251 -10.3814 97.9001
lradius 98.9556
lwrist -4.4948
lhand -54.5937 -36.5202
lfingers 7.12502
lthumb -26.9915 -8.42847
rfemur -7.42136 5.76015 9.62615
rtibia 10.9245
rfoot -16.6198 -5.75841
rtoes -33.1462
lfemur -6.27107 -10.8613 -11.6119
ltibia 9.97664
lfoot -14.0927 19.6453
ltoes -71.1619
57
root 11.5337 16.4532 3.50137 -71.5893 -86.9788 81.7405
lowerback -6.89477 0.584053 -8.00942
upperback -0.838595 1.35161 0.0524811
thorax 2.81139 0.574821 4.67958
lowerneck -8.76796 1.96 -7.89513
upperneck 12.8292 2.1844 10.8796
head 5.0487 1.38022 4.87153
rclavicle -6.39062e-015 1.85988e-014
rhumerus -46.1332 -15.3296 -84.9155
rradius 103.451
rwrist -6.85671
rhand -22.1161 -29.6073
rfingers 7.12502
rthumb 4.2967 -59.5437
lclavicle -6.39062e-015 1.85988e-014
lhumerus -40.2224 -10.3789 97.9351
lradius 98.9621
lwrist -4.28671
lhand -54.5897 -36.4354
lfingers 7.12502
lthumb -26.9876 -8.34313
rfemur -7.47059 5.73249 9.81316
rtibia 10.9087
rfoot -16.6402 -5.84162
rtoes -33.0924
lfemur -6.36017 -11.2 -11.4178
ltibia 9.96608
lfoot -15.0412 19.1742
ltoes -70.4152
58
root 11.5363 16.4506 3.49047 -68.5149 -86.9448 78.7674
lowerback -6.98945 0.559049 -7.93991
upperback -0.852848 1.3216 0.0138239
thorax 2.8562 0.559033 4.59928
lowerneck -8.76067 1.89764 -7.735
upperneck 12.8384 2.10465 10.6685
head 5.06384 1.33517 4.77238
rclavicle -2.69097e-015 3.24819e-014
rhumerus -46.0769 -15.4617 -84.8695
rradius 103.442
rwrist -6.7884
rhand -21.4948 -29.4733
rfingers 7.12502
rthumb 4.89657 -59.3968
lclavicle -2.69097e-015 3.24819e-014
lhumerus -40.1579 -10.4075 97.9742
lradius 98.9098
lwrist -4.13504
lhand -54.5694 -36.3952
lfingers 7.12502
lthumb -26.9682 -8.29992
rfemur -7.54245 5.62653 9.8435
rtibia 10.8743
rfoot -16.6619 -5.94137
rtoes -33.5517
lfemur -6.47611 -11.6742 -11.367
ltibia 9.94422
lfoot -16.2299 18.5864
ltoes -69.3749
59
root 11.5363 16.4479 3.47899 -67.0025 -86.8574 77.2734
lowerback -6.9992 0.551144 -7.98409
upperback -0.883466 1.31364 -0.00274887
thorax 2.83008 0.556291 4.60589
lowerneck -8.67083 1.83197 -7.59241
upperneck 12.8254 2.02434 10.4226
head 5.05799 1.28466 4.66283
rclavicle 2.18773e-014 2.07637e-015
rhumerus -46.113 -15.521 -84.7939
rradius 103.455
rwrist -6.77195
rhand -21.0017 -29.4922
rfingers 7.12502
rthumb 5.37273 -59.4041
lclavicle 2.18773e-014 2.07637e-015
lhumerus -40.148 -10.4271 98.0711
lradius 98.8187
lwrist -4.10287
lhand -54.4302 -36.4123
lfingers 7.12502
lthumb -26.835 -8.29644
rfemur -7.53592 5.54294 9.8029
rtibia 10.8732
rfoot -16.6818 -5.99259
rtoes -34.1677
lfemur -6.4502 -11.9641 -11.405
ltibia 9.83752
lfoot -16.8255 18.2701
ltoes -68.7614
60
root 11.5352 16.4458 3.46986 -65.817 -86.7884 76.0548
lowerback -6.96234 0.515326 -8.04597
upperback -0.911022 1.26443 0.0502742
thorax 2.7848 0.533693 4.69092
lowerneck -8.54646 1.82641 -7.46085
upperneck 12.7906 2.04019 10.0895
head 5.03137 1.27465 4.53188
rclavicle -2.85753e-015 1.49834e-014
rhumerus -46.1471 -15.4079 -84.7559
rradius 103.495
rwrist -6.66771
rhand -20.8338 -29.9442
rfingers 7.12502
rthumb 5.53486 -59.8519
lclavicle -2.85753e-015 1.49834e-014
lhumerus -40.2073 -10.319 98.1744
lradius 98.7678
lwrist -4.21628
lhand -54.2871 -36.3614
lfingers 7.12502
lthumb -26.6981 -8.22459
rfemur -7.48694 5.53325 9.78795
rtibia 10.9002
rfoot -16.7085 -6.07579
rtoes -34.7903
lfemur -6.37495 -12.0135 -11.4248
ltibia 9.71404
lfoot -16.7063 18.3068
ltoes -68.8442
61
root 11.5354 16.4446 3.4632 -64.7927 -86.7627 75.0075
lowerback -7.00318 0.487337 -8.0415
upperback -0.868628 1.23238 0.0898249
thorax 2.85578 0.513844 4.72856
lowerneck -8.61712 1.81974 -7.30328
upperneck 12.8249 2.05759 9.76511
head 5.05956 1.2722 4.40516
rclavicle -1.39708e-014 2.5345e-015
rhumerus -46.0141 -15.3335 -84.8058
rradius 103.479
rwrist -6.59937
rhand -20.937 -30.165
rfingers 7.12502
rthumb 5.43516 -60.0753
lclavicle -1.39708e-014 2.5345e-015
lhumerus -40.1733 -10.2742 98.2299
lradius 98.7629
lwrist -4.33691
lhand -54.3483 -35.8822
lfingers 7.12502
lthumb -26.7567 -7.75433
rfemur -7.44694 5.62942 9.82763
rtibia 10.9153
rfoot -16.7368 -6.23809
rtoes -34.8855
lfemur -6.32325 -11.9406 -11.3976
ltibia 9.60279
lfoot -16.3782 18.4475
ltoes -69.1822
